# xmcd
#
# Track frame offsets:
#	150
#	25358
#	45270
#	64992
#	84499
#	104926
#	129621
#	152821
#	174220
#	195787
#	218363
#	240917
#	259762
#	280686
#	294435
#
# Disc length: 4193 seconds
#
# Revision: 0
# Processed by: cddbd v1.5.1PL2 Copyright (c) Steve Scherf et al.
# Submitted via: dBpowerAMP V4.0
#
DISCID=c5105f0f
DTITLE=Eva Ibbotson - Häxtävlingen - CD-BOK 04/05
DYEAR=1979
DGENRE=CD-BOK
TTITLE0=04.01
TTITLE1=04.02
TTITLE2=04.03
TTITLE3=04.04
TTITLE4=04.05
TTITLE5=04.06
TTITLE6=04.07
TTITLE7=04.08
TTITLE8=04.09
TTITLE9=04.10
TTITLE10=04.11
TTITLE11=04.12
TTITLE12=04.13
TTITLE13=04.14
TTITLE14=04.15
EXTD=
EXTT0=
EXTT1=
EXTT2=
EXTT3=
EXTT4=
EXTT5=
EXTT6=
EXTT7=
EXTT8=
EXTT9=
EXTT10=
EXTT11=
EXTT12=
EXTT13=
EXTT14=
PLAYORDER=
